<svg width="253" height="194" viewBox="0 0 253 194" fill="none" xmlns="http://www.w3.org/2000/svg">
<path d="M12.9768 77.1916C12.7818 66.9378 12.5878 56.73 12.527 46.52C14.8348 46.4697 16.9801 46.4721 19.1484 46.6769C21.7136 46.9192 24.2313 47.2887 26.9238 47.6838C27.8821 47.8244 28.8625 47.9683 29.875 48.1108C33.6058 48.636 37.6227 49.1167 41.7382 49.1167C44.2715 49.1167 46.8783 49.4149 49.8809 49.7765C49.9961 49.7904 50.1119 49.8043 50.2283 49.8184C53.0288 50.1563 56.1935 50.5381 59.4051 50.5804C60.4799 50.5945 61.6137 50.6221 62.7879 50.6506C66.593 50.743 70.8224 50.8457 74.8457 50.5361C79.8183 50.1534 84.7995 50.0928 90.0172 50.0928C94.1721 50.0928 98.2686 49.8398 102.16 49.5995L102.259 49.5934C106.239 49.3475 110.012 49.1167 113.791 49.1167C126.623 49.1167 139.571 49.2549 152.556 49.3935C170.576 49.5858 188.668 49.7788 206.624 49.6045C210.68 49.5651 214.473 49.4627 218.209 49.3619C222.792 49.2381 227.291 49.1167 232.088 49.1167C232.683 49.1167 233.31 49.194 234.231 49.3579C234.406 49.3889 234.608 49.4267 234.832 49.4685C235.629 49.6172 236.697 49.8165 237.741 49.9417C238.309 50.0098 238.86 50.0222 239.326 50.0146C239.354 50.1529 239.388 50.304 239.426 50.4547L241.702 49.8751C241.702 49.8751 241.702 49.8751 241.702 49.8751L239.426 50.4548C240.068 52.9718 240.644 55.5459 241.079 58.0336C241.652 61.3081 241.596 64.6467 241.531 68.559C241.508 69.8926 241.485 71.293 241.485 72.7801V94.8515C241.485 96.7114 241.82 98.3759 242.093 99.5994C242.181 99.9939 242.26 100.333 242.33 100.635C242.509 101.41 242.632 101.944 242.719 102.552C242.927 104.028 242.917 105.459 242.902 107.368C242.898 107.892 242.894 108.452 242.894 109.06V122.183C242.894 125.93 242.513 129.683 242.066 133.748C242.036 134.025 242.005 134.303 241.974 134.583C241.562 138.32 241.118 142.346 241.017 146.438C240.948 149.24 240.997 152.146 241.043 154.9C241.063 156.098 241.083 157.268 241.092 158.388C241.124 162.229 241.044 165.789 240.575 169.196C240.393 170.525 239.981 171.895 239.375 173.63C239.269 173.932 239.154 174.256 239.032 174.597C238.518 176.036 237.893 177.789 237.446 179.53L243.257 181.022L237.446 179.53C237.406 179.685 237.363 179.86 237.315 180.052C237.155 180.696 236.951 181.522 236.696 182.342C236.691 182.357 236.687 182.372 236.682 182.386C236.62 182.441 236.56 182.496 236.501 182.551C236.303 182.737 236.126 182.925 235.969 183.106C235.516 183.335 235.122 183.566 234.791 183.771C234.67 183.77 234.524 183.767 234.351 183.759C233.887 183.739 233.404 183.699 232.828 183.651L232.754 183.645L232.695 183.64C232.195 183.598 231.445 183.536 230.783 183.536H214.968C208.759 183.536 202.602 183.784 196.586 184.027L196.533 184.029C190.46 184.274 184.53 184.512 178.59 184.512H137.565C124.58 184.512 111.616 184.634 98.6859 184.756L98.6726 184.756C85.7291 184.878 72.82 185 59.9016 185C54.11 185 48.2637 184.879 42.3346 184.757H42.3335C36.426 184.635 30.4366 184.512 24.4622 184.512C23.6125 184.512 22.7305 184.538 21.9703 184.56C21.7148 184.567 21.473 184.574 21.2509 184.58C20.2859 184.604 19.5216 184.606 18.8362 184.561C17.5379 184.475 16.7996 184.233 16.1844 183.826C16.0316 183.725 15.6598 183.405 15.2533 182.271C14.8266 181.08 14.5764 179.625 14.2958 177.73C12.1766 163.418 12.6079 149.044 13.0578 134.051C13.2507 127.621 13.4471 121.076 13.4471 114.374C13.4471 102.005 13.214 89.6717 12.9808 77.4043L12.9768 77.1916ZM242.276 49.8629C242.301 49.8646 242.296 49.8657 242.266 49.8623C242.269 49.8625 242.273 49.8627 242.276 49.8629Z" stroke="#2A8AD9" stroke-width="12" stroke-linecap="round"/>
<path d="M7.44696 61.6631C7.44696 62.928 7.05845 64.9034 7.55135 66.0557C7.95672 67.0034 8.78703 69.1346 8.85619 70.0687C9.00083 72.0224 10.373 74.0948 10.8395 76.0339C11.302 77.956 12.339 81.1182 13.658 82.5414C15.6521 84.6929 17.9991 86.1209 20.13 88.0186C21.2042 88.9753 22.6268 88.7531 23.7835 89.4828C24.9421 90.2136 25.7159 90.7673 27.0717 91.0554C33.2455 92.3675 39.61 91.9555 45.7831 93.1432C52.1112 94.3608 59.4606 93.3873 65.9037 93.3873C75.0541 93.3873 97.8951 92.1093 107.12 93.3873M142.851 94.2549C150.019 94.2549 152.788 94.3634 159.956 94.3634C166.631 94.3634 173.571 94.9622 180.207 94.2549C187.766 93.4494 195.934 93.9524 203.329 92.0315C206.998 91.0787 210.344 90.4589 214.133 90.4589C216.026 90.4589 218.087 89.8572 219.979 89.4828C221.504 89.181 223.826 89.3988 225.198 88.7507C229.325 86.8018 234.49 87.7278 238.586 85.3342C240.023 84.4941 242.787 82.9672 242.787 80.9416C242.787 80.4179 243.693 75.619 243.988 75.356C245.826 73.719 245.606 68.55 245.606 66.0557" stroke="#2A8AD9" stroke-width="12" stroke-linecap="round"/>
<path d="M107.972 87.5305C107.257 94.9545 105.045 105.585 110.216 111.554C111.781 113.361 117.306 113.398 119.924 113.398C125.143 113.398 130.363 113.398 135.582 113.398C137.334 113.398 138.471 113.788 139.236 111.825C140.335 109.002 140.394 106.187 140.958 103.257C141.604 99.8992 142.263 97.0051 142.263 93.4957C142.263 91.8339 142.812 88.5769 141.689 87.1509C139.689 84.6115 138.616 83.7261 134.956 83.626C132.228 83.5514 129.489 83.626 126.761 83.626C123.619 83.626 120.653 83.9723 117.523 84.2225C116.464 84.3072 108.556 84.077 108.441 85.0902C108.352 85.8805 108.441 86.735 108.441 87.5305" stroke="#2A8AD9" stroke-width="12" stroke-linecap="round"/>
<path d="M65.2253 44.0928C65.4519 43.3083 67.1895 41.4429 67.835 40.6764C68.6945 39.6558 69.1082 38.1405 69.5574 36.8803C70.747 33.5431 72.7607 30.9604 74.3853 27.9596C77.5665 22.0836 83.0749 19.2022 87.3032 14.809C91.6841 10.2572 96.5293 7.48806 103.222 7.48806C109.548 7.48806 115.702 7 122.064 7C123.687 7 125.592 7.61195 127.127 8.08459C128.359 8.4638 129.52 8.20627 130.754 8.49131C132.005 8.78018 134.283 8.57235 135.217 9.44032C136.644 10.7667 138.498 10.5143 139.81 11.7722C141.012 12.9252 142.707 12.3173 143.933 13.1279C145.174 13.9482 146.572 14.4657 147.795 15.2971C150.29 16.9916 152.498 19.5735 154.476 21.8859C157.569 25.5011 160.881 29.0552 163.975 32.2709C164.942 33.2747 166.331 35.0483 167.159 36.555C168.584 39.1458 168.657 40.3681 168.657 43.3146" stroke="#2A8AD9" stroke-width="12" stroke-linecap="round"/>
</svg>
