<svg width="1119" height="1119" viewBox="0 0 1119 1119" fill="none" xmlns="http://www.w3.org/2000/svg">
<g clip-path="url(#clip0_95_9)">
<g clip-path="url(#clip1_95_9)">
<path d="M94.7881 102.795C80.0061 84.6231 47.3264 55.3144 54.1318 26.6315C57.2331 13.5603 72.1442 40.8163 74.4673 45.0977C81.283 57.6591 85.5817 72.3687 88.9117 86.2401C89.3321 87.9908 93.4028 103.572 93.7589 96.7816" stroke="#FFBE58" stroke-width="12" stroke-linecap="round"/>
<path d="M98.5588 101.504C82.8616 87.973 60.6998 65.7783 38.239 64.7536C34.6341 64.5891 29.6081 64.6903 26.8848 67.5117C23.1536 71.3771 23.5338 79.5298 28.8786 81.7628C38.0734 85.6043 49.6048 85.7628 59.2919 88.0253C68.3377 90.138 77.3793 92.6713 85.7114 96.8567C87.2052 97.6071 94.1772 103.483 92.9629 102.25" stroke="#FFBE58" stroke-width="12" stroke-linecap="round"/>
<path d="M99.6475 97.5738C85.1685 80.4985 78.7103 62.8661 76.7305 40.369C76.4719 37.4308 78.5257 9.80022 83.9284 15.1864C107.896 39.0804 92.8196 76.5686 96.1531 105.333" stroke="#FFBE58" stroke-width="12" stroke-linecap="round"/>
</g>
<g clip-path="url(#clip2_95_9)">
<path d="M1024.21 102.795C1038.99 84.6231 1071.67 55.3144 1064.87 26.6315C1061.77 13.5603 1046.86 40.8163 1044.53 45.0977C1037.72 57.6591 1033.42 72.3687 1030.09 86.2401C1029.67 87.9908 1025.6 103.572 1025.24 96.7816" stroke="#FFBE58" stroke-width="12" stroke-linecap="round"/>
<path d="M1020.44 101.504C1036.14 87.973 1058.3 65.7783 1080.76 64.7536C1084.37 64.5891 1089.39 64.6903 1092.12 67.5117C1095.85 71.3771 1095.47 79.5298 1090.12 81.7628C1080.93 85.6043 1069.4 85.7628 1059.71 88.0253C1050.66 90.138 1041.62 92.6713 1033.29 96.8567C1031.79 97.6071 1024.82 103.483 1026.04 102.25" stroke="#FFBE58" stroke-width="12" stroke-linecap="round"/>
<path d="M1019.35 97.5738C1033.83 80.4985 1040.29 62.8661 1042.27 40.369C1042.53 37.4308 1040.47 9.80022 1035.07 15.1864C1011.1 39.0804 1026.18 76.5686 1022.85 105.333" stroke="#FFBE58" stroke-width="12" stroke-linecap="round"/>
</g>
<g clip-path="url(#clip3_95_9)">
<path d="M94.7881 1016.29C80.0061 1034.46 47.3264 1063.77 54.1318 1092.45C57.2331 1105.52 72.1442 1078.27 74.4673 1073.99C81.283 1061.42 85.5817 1046.72 88.9117 1032.84C89.3321 1031.09 93.4028 1015.51 93.7589 1022.3" stroke="#FFBE58" stroke-width="12" stroke-linecap="round"/>
<path d="M98.5588 1017.58C82.8616 1031.11 60.6998 1053.31 38.239 1054.33C34.6341 1054.5 29.6081 1054.39 26.8848 1051.57C23.1536 1047.71 23.5338 1039.55 28.8786 1037.32C38.0734 1033.48 49.6048 1033.32 59.2919 1031.06C68.3377 1028.95 77.3793 1026.41 85.7114 1022.23C87.2052 1021.48 94.1772 1015.6 92.9629 1016.83" stroke="#FFBE58" stroke-width="12" stroke-linecap="round"/>
<path d="M99.6475 1021.51C85.1685 1038.59 78.7103 1056.22 76.7305 1078.71C76.4719 1081.65 78.5257 1109.28 83.9284 1103.9C107.896 1080 92.8196 1042.52 96.1531 1013.75" stroke="#FFBE58" stroke-width="12" stroke-linecap="round"/>
</g>
<g clip-path="url(#clip4_95_9)">
<path d="M1024.21 1016.29C1038.99 1034.46 1071.67 1063.77 1064.87 1092.45C1061.77 1105.52 1046.86 1078.27 1044.53 1073.99C1037.72 1061.42 1033.42 1046.72 1030.09 1032.84C1029.67 1031.09 1025.6 1015.51 1025.24 1022.3" stroke="#FFBE58" stroke-width="12" stroke-linecap="round"/>
<path d="M1020.44 1017.58C1036.14 1031.11 1058.3 1053.31 1080.76 1054.33C1084.37 1054.5 1089.39 1054.39 1092.12 1051.57C1095.85 1047.71 1095.47 1039.55 1090.12 1037.32C1080.93 1033.48 1069.4 1033.32 1059.71 1031.06C1050.66 1028.95 1041.62 1026.41 1033.29 1022.23C1031.79 1021.48 1024.82 1015.6 1026.04 1016.83" stroke="#FFBE58" stroke-width="12" stroke-linecap="round"/>
<path d="M1019.35 1021.51C1033.83 1038.59 1040.29 1056.22 1042.27 1078.71C1042.53 1081.65 1040.47 1109.28 1035.07 1103.9C1011.1 1080 1026.18 1042.52 1022.85 1013.75" stroke="#FFBE58" stroke-width="12" stroke-linecap="round"/>
</g>
</g>
<defs>
<clipPath id="clip0_95_9">
<rect width="1119" height="1119" fill="white"/>
</clipPath>
<clipPath id="clip1_95_9">
<rect width="97" height="106" fill="white" transform="translate(0 44.084) rotate(-27.0311)"/>
</clipPath>
<clipPath id="clip2_95_9">
<rect width="97" height="106" fill="white" transform="matrix(-0.89076 -0.454474 -0.454474 0.89076 1119 44.084)"/>
</clipPath>
<clipPath id="clip3_95_9">
<rect width="97" height="106" fill="white" transform="matrix(0.89076 0.454474 0.454474 -0.89076 0 1075)"/>
</clipPath>
<clipPath id="clip4_95_9">
<rect width="97" height="106" fill="white" transform="translate(1119 1075) rotate(152.969)"/>
</clipPath>
</defs>
</svg>
