<svg width="902" height="902" viewBox="0 0 902 902" fill="none" xmlns="http://www.w3.org/2000/svg">
<g clip-path="url(#clip0_96_35)">
<g clip-path="url(#clip1_96_35)">
<path d="M59.4722 58.1535C62.8992 65.9774 68.8482 70.4594 75.0003 76.1852C82.9888 83.62 90.887 91.0479 99.147 98.1841" stroke="#2A8AD9" stroke-width="12" stroke-linecap="round"/>
<path d="M112.502 112.448C118.618 121.784 126.873 128.591 135.355 135.732C143.41 142.513 151.694 149.011 159.966 155.524" stroke="#2A8AD9" stroke-width="12" stroke-linecap="round"/>
<path d="M65.4186 163.156C68.1665 156.028 72.7329 151.283 77.6883 145.609C85.1854 137.024 91.8967 128.242 98.2648 118.805" stroke="#2A8AD9" stroke-width="12" stroke-linecap="round"/>
<path d="M113.886 98.6531C126.668 84.1272 137.848 68.4278 149.516 53.0152" stroke="#2A8AD9" stroke-width="12" stroke-linecap="round"/>
<path d="M109.786 89.4599L106.248 77.1689" stroke="#2A8AD9" stroke-width="12" stroke-linecap="round"/>
<path d="M108.911 128.661L108.832 139.21" stroke="#2A8AD9" stroke-width="12" stroke-linecap="round"/>
<path d="M130.925 102.534L139.761 100.803" stroke="#2A8AD9" stroke-width="12" stroke-linecap="round"/>
<path d="M83.3549 106.606C75.9036 110.604 68.2735 113.161 60.4001 116.163" stroke="#2A8AD9" stroke-width="12" stroke-linecap="round"/>
</g>
<g clip-path="url(#clip2_96_35)">
<path d="M842.528 58.1535C839.101 65.9774 833.152 70.4594 827 76.1852C819.011 83.62 811.113 91.0479 802.853 98.1841" stroke="#2A8AD9" stroke-width="12" stroke-linecap="round"/>
<path d="M789.498 112.448C783.382 121.784 775.127 128.591 766.645 135.732C758.59 142.513 750.306 149.011 742.034 155.524" stroke="#2A8AD9" stroke-width="12" stroke-linecap="round"/>
<path d="M836.581 163.156C833.833 156.028 829.267 151.283 824.312 145.609C816.814 137.024 810.103 128.242 803.735 118.805" stroke="#2A8AD9" stroke-width="12" stroke-linecap="round"/>
<path d="M788.114 98.6531C775.331 84.1272 764.152 68.4278 752.484 53.0152" stroke="#2A8AD9" stroke-width="12" stroke-linecap="round"/>
<path d="M792.214 89.4599L795.752 77.1689" stroke="#2A8AD9" stroke-width="12" stroke-linecap="round"/>
<path d="M793.089 128.661L793.168 139.21" stroke="#2A8AD9" stroke-width="12" stroke-linecap="round"/>
<path d="M771.075 102.534L762.239 100.803" stroke="#2A8AD9" stroke-width="12" stroke-linecap="round"/>
<path d="M818.645 106.606C826.096 110.604 833.726 113.161 841.6 116.163" stroke="#2A8AD9" stroke-width="12" stroke-linecap="round"/>
</g>
<g clip-path="url(#clip3_96_35)">
<path d="M59.4722 844.327C62.8992 836.503 68.8482 832.021 75.0003 826.295C82.9888 818.86 90.887 811.433 99.147 804.296" stroke="#2A8AD9" stroke-width="12" stroke-linecap="round"/>
<path d="M112.502 790.033C118.618 780.697 126.873 773.89 135.355 766.749C143.41 759.967 151.694 753.47 159.966 746.956" stroke="#2A8AD9" stroke-width="12" stroke-linecap="round"/>
<path d="M65.4186 739.324C68.1665 746.453 72.7329 751.197 77.6883 756.871C85.1854 765.457 91.8967 774.239 98.2648 783.675" stroke="#2A8AD9" stroke-width="12" stroke-linecap="round"/>
<path d="M113.886 803.827C126.668 818.353 137.848 834.053 149.516 849.465" stroke="#2A8AD9" stroke-width="12" stroke-linecap="round"/>
<path d="M109.786 813.021L106.248 825.312" stroke="#2A8AD9" stroke-width="12" stroke-linecap="round"/>
<path d="M108.911 773.819L108.832 763.27" stroke="#2A8AD9" stroke-width="12" stroke-linecap="round"/>
<path d="M130.925 799.947L139.761 801.678" stroke="#2A8AD9" stroke-width="12" stroke-linecap="round"/>
<path d="M83.3549 795.874C75.9036 791.877 68.2735 789.319 60.4001 786.318" stroke="#2A8AD9" stroke-width="12" stroke-linecap="round"/>
</g>
<g clip-path="url(#clip4_96_35)">
<path d="M842.528 844.327C839.101 836.503 833.152 832.021 827 826.295C819.011 818.86 811.113 811.433 802.853 804.296" stroke="#2A8AD9" stroke-width="12" stroke-linecap="round"/>
<path d="M789.498 790.033C783.382 780.697 775.127 773.89 766.645 766.749C758.59 759.967 750.306 753.47 742.034 746.956" stroke="#2A8AD9" stroke-width="12" stroke-linecap="round"/>
<path d="M836.581 739.324C833.833 746.453 829.267 751.197 824.312 756.871C816.814 765.457 810.103 774.239 803.735 783.675" stroke="#2A8AD9" stroke-width="12" stroke-linecap="round"/>
<path d="M788.114 803.827C775.331 818.353 764.152 834.053 752.484 849.465" stroke="#2A8AD9" stroke-width="12" stroke-linecap="round"/>
<path d="M792.214 813.021L795.752 825.312" stroke="#2A8AD9" stroke-width="12" stroke-linecap="round"/>
<path d="M793.089 773.819L793.168 763.27" stroke="#2A8AD9" stroke-width="12" stroke-linecap="round"/>
<path d="M771.075 799.947L762.239 801.678" stroke="#2A8AD9" stroke-width="12" stroke-linecap="round"/>
<path d="M818.645 795.874C826.096 791.877 833.726 789.319 841.6 786.318" stroke="#2A8AD9" stroke-width="12" stroke-linecap="round"/>
</g>
</g>
<defs>
<clipPath id="clip0_96_35">
<rect width="902" height="902" fill="white"/>
</clipPath>
<clipPath id="clip1_96_35">
<rect width="154" height="152" fill="white" transform="translate(0 109) rotate(-45)"/>
</clipPath>
<clipPath id="clip2_96_35">
<rect width="154" height="152" fill="white" transform="matrix(-0.707107 -0.707107 -0.707107 0.707107 902 109)"/>
</clipPath>
<clipPath id="clip3_96_35">
<rect width="154" height="152" fill="white" transform="matrix(0.707107 0.707107 0.707107 -0.707107 0 793.48)"/>
</clipPath>
<clipPath id="clip4_96_35">
<rect width="154" height="152" fill="white" transform="translate(902 793.48) rotate(135)"/>
</clipPath>
</defs>
</svg>
