<svg width="253" height="194" viewBox="0 0 253 194" fill="none" xmlns="http://www.w3.org/2000/svg">
<path d="M16.6443 55.9657L14.324 50.4325L16.6443 55.9657C17.5823 55.5723 18.3997 55.2697 19.3285 54.9259C20.0113 54.6731 20.7543 54.398 21.6499 54.0482C23.4925 53.3283 25.6265 52.412 27.6427 51.1159C29.6054 49.8542 32.4003 48.6276 35.0501 47.6737C35.3495 47.5659 35.6878 47.4475 36.0528 47.3196C37.3468 46.8665 38.9767 46.2957 40.4002 45.6664C40.8854 45.4519 41.3092 45.295 41.8766 45.0849C42.2563 44.9443 42.7003 44.78 43.27 44.5586C44.4135 44.1143 46.012 43.4504 47.477 42.4362C48.3668 41.8202 49.5675 41.2254 51.1649 40.5504C51.638 40.3505 52.2408 40.1069 52.8913 39.844C54.0182 39.3886 55.2881 38.8754 56.2748 38.4313C57.0331 38.0901 57.7817 37.7512 58.5234 37.4155C61.2881 36.164 63.9559 34.9563 66.6658 33.8349C69.4032 32.7022 72.0627 31.5672 74.6807 30.4498C81.588 27.5018 88.2058 24.6774 95.1987 22.3464C98.5104 21.2425 101.544 19.748 104.245 18.3529C104.863 18.0335 105.458 17.7228 106.036 17.4208C108.095 16.3446 109.941 15.3803 111.868 14.5373C113.279 13.9201 114.626 13.1645 115.669 12.5791C115.825 12.4918 115.974 12.4083 116.115 12.3295C117.327 11.6547 118.187 11.2118 119.005 10.9197C119.715 10.6662 120.301 10.4859 120.996 10.2722C121.56 10.0986 122.195 9.90311 123.026 9.62856C124.53 9.13192 126.443 8.43673 128.182 7.38111C128.18 7.38246 128.222 7.35652 128.33 7.31743C128.438 7.2779 128.599 7.23023 128.824 7.18431C129.291 7.08915 129.906 7.02636 130.707 7.00676C131.506 6.98719 132.358 7.0123 133.321 7.05056C133.458 7.05602 133.601 7.06191 133.747 7.06795C134.549 7.10104 135.469 7.13901 136.31 7.13901C137.796 7.13901 138.185 7.18838 138.704 7.35074C138.909 7.41484 139.292 7.57957 140.065 7.98546C140.19 8.05111 140.337 8.12981 140.501 8.21728C141.117 8.54609 141.964 8.99887 142.734 9.34872C143.332 9.62065 143.882 9.79891 144.31 9.92095C144.664 10.0224 145.023 10.1086 145.24 10.1608C145.268 10.1676 145.294 10.1738 145.317 10.1793C145.499 10.2233 145.609 10.2529 145.669 10.2695C145.71 10.2922 145.767 10.3241 145.845 10.3678L145.908 10.404C146.09 10.5068 146.347 10.6521 146.605 10.7913C146.886 10.9429 147.286 11.1512 147.719 11.3386C147.938 11.4336 148.233 11.5525 148.574 11.6602C148.879 11.7567 149.434 11.9131 150.125 11.9684C150.304 11.9827 150.859 12.0961 151.905 12.471C152.58 12.7131 153.156 12.9464 153.791 13.2035C154.155 13.3511 154.539 13.5065 154.972 13.676C157.322 14.5955 159.319 15.6968 161.706 17.0127C162.675 17.5472 163.709 18.1171 164.856 18.7247C168.939 20.8861 172.797 22.9393 176.364 25.2474C178.589 26.6875 181.073 27.8311 183.009 28.7221C183.146 28.7854 183.281 28.8473 183.412 28.908C183.844 29.1071 184.327 29.3351 184.837 29.5755C185.786 30.023 186.826 30.5134 187.79 30.9401C188.15 31.0997 188.535 31.2557 188.834 31.3772L188.844 31.3815L188.861 31.3881C189.186 31.52 189.452 31.6281 189.706 31.7377C189.963 31.8485 190.141 31.9323 190.26 31.9943C190.281 32.005 190.297 32.0139 190.31 32.0209C192.239 33.4526 194.425 34.5415 196.309 35.3909C197.287 35.8317 198.264 36.2423 199.149 36.6128L199.346 36.6954C200.176 37.0425 200.909 37.3494 201.591 37.6525C202.101 37.8792 202.629 38.2077 203.652 38.8593L203.704 38.8922C204.589 39.4559 205.909 40.296 207.439 40.9367C209.275 41.7052 211.048 42.6011 213.082 43.6469C215.025 44.6465 217.093 45.5078 218.898 46.2595C219.219 46.3932 219.532 46.5234 219.834 46.6503C221.961 47.5439 223.722 48.3325 225.246 49.2581L228.36 44.1294L225.246 49.2581C226.901 50.2627 228.623 50.9219 229.82 51.3799L229.972 51.4383C231.34 51.9627 232.104 52.2738 232.738 52.661C233.877 53.3571 234.99 54.0877 236.197 54.8792C236.514 55.0877 236.839 55.3004 237.171 55.5179C238.714 56.5259 240.398 57.6051 242.165 58.5866C243.148 59.133 244.06 59.6726 245.047 60.2571C245.107 60.2929 245.168 60.3289 245.229 60.365C245.067 60.5298 244.917 60.6789 244.788 60.8071C244.729 60.8655 244.674 60.9196 244.625 60.9689L248.644 64.9883L244.625 60.9689C243.005 62.5893 240.654 64.0097 238.297 64.7463C236.099 65.433 234.687 66.7802 233.918 67.5808C233.672 67.8367 233.36 68.1816 233.16 68.4036C233.094 68.4765 233.04 68.5361 233.005 68.575C232.968 68.6149 232.934 68.6519 232.902 68.6862C232.539 68.8878 232.065 69.1519 231.552 69.439C230.451 70.0545 229.11 70.8083 228.318 71.2703C224.915 73.2552 221.252 74.2514 216.648 75.5036C215.889 75.7099 215.105 75.9232 214.292 76.149C208.243 77.8292 202.799 80.6412 197.914 83.2593C197.38 83.5457 196.853 83.8293 196.333 84.1095C191.925 86.4817 187.969 88.611 183.781 90.1385C181.846 90.8444 180.081 91.7836 178.719 92.5084C178.634 92.5534 178.551 92.5975 178.47 92.6407C176.946 93.45 175.864 94.0016 174.786 94.3674C174.202 94.5658 173.572 94.774 172.918 94.9903C171.513 95.455 169.996 95.9568 168.567 96.4788L168.323 96.5681L168.323 96.5682L168.099 96.6498C164.769 97.8654 160.995 99.2433 157.3 101.645C156.257 102.323 155.064 102.916 153.502 103.667C153.404 103.714 153.305 103.762 153.204 103.811C151.8 104.485 150.083 105.31 148.436 106.32C144.846 108.523 141.378 110.441 137.751 111.942C136.917 112.287 136.163 112.472 135.071 112.739C134.456 112.89 133.733 113.067 132.827 113.314C132.262 113.468 131.776 113.651 131.404 113.804C131.109 113.925 130.81 114.059 130.624 114.143C130.592 114.158 130.563 114.171 130.538 114.182C130.393 114.247 130.301 114.285 130.25 114.306C126.691 114.998 122.301 115.11 119.448 114.359C118.554 114.124 117.593 113.662 115.913 112.821L115.79 112.76C114.337 112.032 112.256 110.989 109.931 110.408C108.417 110.03 106.904 109.533 105.234 108.957C104.907 108.844 104.569 108.726 104.223 108.605C102.874 108.135 101.397 107.62 99.9211 107.169C96.0067 105.973 92.5787 104.821 89.5481 103.168C89.2237 102.991 88.8066 102.703 88.056 102.149C87.9912 102.101 87.9227 102.05 87.8508 101.997C87.2219 101.53 86.334 100.871 85.4108 100.31C82.8431 98.7485 79.9757 97.6791 77.7825 96.8611C77.4664 96.7432 77.1643 96.6305 76.8791 96.5223C76.451 96.3599 76.0179 96.1947 75.58 96.0276C72.5828 94.884 69.361 93.6547 65.9727 92.671C64.6304 92.2813 63.4176 91.9604 62.2961 91.6638C59.6946 90.9756 57.5845 90.4174 55.4875 89.4306C54.0955 88.7755 52.7336 88.1477 51.3991 87.5325C46.2338 85.1514 41.4797 82.9598 36.9823 80.1115C36.3749 79.7267 35.4588 79.1857 34.6987 78.7366C34.25 78.4716 33.8556 78.2387 33.611 78.0889C32.6246 77.4848 31.9394 77.0012 31.4335 76.5374L27.3791 80.9604L31.4335 76.5374C28.1862 73.5607 24.8254 72.0049 21.8853 70.6439L21.819 70.6131C20.7777 70.1311 19.6111 69.7771 18.9521 69.5771C18.8488 69.5458 18.758 69.5183 18.6821 69.4946C17.9727 69.2733 17.786 69.1795 17.785 69.1813C17.785 69.1814 17.7853 69.1817 17.786 69.1821C17.0382 68.7115 16.3341 68.4294 15.8151 68.2518C15.4962 68.1427 15.159 68.046 14.9392 67.9851C14.0221 67.2837 12.9366 66.5603 11.8565 65.9278C10.735 65.271 9.28137 64.5113 7.81427 64.0319C7.62447 63.872 7.35233 63.601 7.04836 63.2268C6.73415 62.84 6.46209 62.4365 6.26719 62.0907C6.13749 61.8605 6.08178 61.7269 6.06681 61.6916C6.0362 61.56 6.01936 61.4588 6.01025 61.3845C6.18402 61.1992 6.5145 60.9088 7.15968 60.4528C7.49971 60.2125 7.87232 59.9635 8.3199 59.6673C8.37707 59.6294 8.43576 59.5906 8.49576 59.5509C8.88263 59.2952 9.32369 59.0036 9.76195 58.703C10.2166 58.3913 10.9772 58.0325 12.2903 57.5548C12.5831 57.4483 12.9522 57.3201 13.3633 57.1773C14.3751 56.826 15.6405 56.3866 16.6443 55.9657ZM14.5439 67.8708C14.5447 67.8706 14.5596 67.8754 14.5863 67.8854C14.5565 67.8759 14.5432 67.8709 14.5439 67.8708ZM6.00115 61.2211C6.00137 61.2212 6.00124 61.2262 6.00016 61.2356C6.0004 61.2257 6.00094 61.221 6.00115 61.2211Z" stroke="#2A8AD9" stroke-width="12" stroke-linecap="round"/>
<path d="M210.331 85.1805C212.135 85.1805 211.947 89.8708 211.947 91.1603C211.947 92.3521 211.682 93.3919 211.624 94.5543C211.598 95.06 211.23 95.5376 211.049 95.9909C210.742 96.7574 211.032 97.7712 210.816 98.5948C210.397 100.184 210.701 101.973 210.654 103.605C210.6 105.488 210.008 107.409 210.008 109.297C210.008 112.167 209.684 115.083 209.684 117.989C209.684 128.345 210.331 138.624 210.331 149.02C210.331 153.878 204.572 156.966 200.777 159.381C198.093 161.09 196.056 163.394 193.199 164.822C189.98 166.432 186.266 168.398 183.664 171C180.299 174.365 175.253 174.808 171.417 177.464C168.795 179.279 164.795 179.74 161.827 181.038C158.732 182.392 155.922 183.317 152.543 183.947C149.621 184.492 146.291 185.384 143.295 185.384C140.3 185.384 137.356 186.03 134.37 186.03C131.893 186.03 129.182 185.672 126.738 186.048C120.631 186.988 114.726 187 108.511 187C105.557 187 102.65 187.033 99.8558 186.102C96.6392 185.03 93.4987 183.696 90.3383 182.475C86.7181 181.076 83.2637 179.763 79.923 177.949C77.3727 176.565 75.0243 174.764 72.4885 173.496C69.7202 172.112 66.9691 170.593 64.2281 169.15C61.9268 167.939 60.5023 165.43 58.338 163.906C56.1188 162.345 54.2244 160.367 52.3401 158.483C50.8294 156.973 50.1868 154.523 48.6409 153.132C47.1784 151.816 46.1268 150.9 46.1268 148.858C46.1268 143.209 46.7733 137.725 46.7733 132.05C46.7733 128.494 46.7733 124.939 46.7733 121.383C46.7733 118.375 46.1268 115.397 46.1268 112.332C46.1268 108.561 46.1268 104.79 46.1268 101.019C46.1268 99.9921 45.9221 94.3335 46.7733 93.9079" stroke="#2A8AD9" stroke-width="12" stroke-linecap="round"/>
<path d="M128.875 59.6448C130.384 59.6448 131.892 59.6448 133.4 59.6448C134.829 59.6448 135.977 60.2912 137.441 60.2912C142.061 60.2912 146.504 62.3793 151.053 63.0567C153.732 63.4558 156.508 63.7208 159.134 64.3137C162.228 65.0124 165.717 64.4239 168.885 64.7447C174.19 65.2819 179.603 65.7202 184.831 66.8278C191.564 68.2543 198.02 69.6957 204.638 71.5866C208.874 72.7967 213.25 73.683 217.55 74.6753C221.6 75.61 225.56 76.6824 229.527 77.8897C231.738 78.5625 234.661 78.3828 235.202 80.8167C235.977 84.3071 237.159 87.6791 237.159 91.3937C237.159 94.0107 237.806 96.4608 237.806 99.0616C237.806 101.169 237.806 103.276 237.806 105.383C237.806 108.483 237.482 111.549 237.482 114.595C237.482 117.269 236.513 120.118 236.513 122.676" stroke="#2A8AD9" stroke-width="12" stroke-linecap="round"/>
<path d="M236.513 122.999C234.161 122.999 232.634 125.958 232.634 128.171C232.634 130.597 233.907 133.666 236.674 133.666C237.999 133.666 239.037 133.907 239.997 132.948C240.993 131.951 240.715 129.682 240.715 128.332C240.715 126.852 240.169 125.63 238.776 125.01C237.532 124.458 237.036 124.102 235.866 123.322" stroke="#2A8AD9" stroke-width="12" stroke-linecap="round"/>
<path d="M233.28 132.373C233.28 134.037 233.28 135.701 233.28 137.365C233.28 139.178 232.317 140.966 231.736 142.645C231.278 143.967 231.079 145.663 230.228 146.757C229.006 148.327 236.143 146.676 236.782 146.452C238.093 145.993 239.96 145.949 241.361 145.949C242.936 145.949 241.718 141.579 241.361 140.598C240.46 138.119 238.776 136.314 238.776 133.666" stroke="#2A8AD9" stroke-width="12" stroke-linecap="round"/>
</svg>
