<svg width="253" height="188" viewBox="0 0 253 188" fill="none" xmlns="http://www.w3.org/2000/svg">
<g clip-path="url(#clip0_64_13)">
<path d="M231.341 76.453C232.814 75.5935 236.513 73.5439 236.513 73.5439C237.856 72.3567 238.595 70.9392 240.086 70.4731C243.332 69.4588 246.535 67.5442 248.868 65.2116C249.618 64.4608 254.234 60.052 252.513 58.675C251.299 57.7035 250.459 56.4821 249.119 55.6941C247.788 54.9111 246.48 54.1202 245.079 53.3416C241.945 51.6007 238.948 49.4245 235.866 47.5413C233.509 46.1005 230.736 45.5716 228.36 44.1294C224.484 41.7761 219.874 40.393 215.826 38.3112C213.798 37.2681 211.835 36.2721 209.756 35.402C207.714 34.5474 206.022 33.0562 204.028 32.1697C200.791 30.7312 196.657 29.2811 193.828 27.1595C192.921 26.4796 191.277 25.9224 190.218 25.4535C188.768 24.8115 187.354 24.1191 185.926 23.4603C183.821 22.4884 181.574 21.4719 179.623 20.2099C175.801 17.7365 171.712 15.5651 167.664 13.422C164.142 11.5575 160.887 9.54751 157.158 8.08858C155.282 7.35433 152.608 6.14786 150.604 5.98755C150.095 5.94687 148.822 5.13262 148.269 4.85622C147.271 4.35677 146.177 4.32289 145.217 3.88652C143.682 3.18883 142.025 2.10251 140.494 1.62386C139.046 1.17154 137.877 1.13901 136.31 1.13901C132.948 1.13901 128.086 0.42002 125.068 2.25238C122.806 3.62593 119.56 4.35039 116.987 5.26925C114.334 6.21678 112.04 7.91317 109.463 9.04033C104.06 11.4041 98.9934 14.757 93.3013 16.6543C83.3908 19.9578 74.0269 24.2956 64.3717 28.2908C60.8231 29.7592 57.3168 31.3829 53.8127 32.9598C50.7053 34.3581 46.8821 35.5505 44.0617 37.5031C42.3564 38.6836 39.8901 39.3317 37.9741 40.1787C36.4079 40.8712 34.6405 41.4442 33.0178 42.0284C30.1918 43.0457 26.9131 44.4521 24.3982 46.0688C21.3787 48.0099 17.6249 49.0483 14.324 50.4325C11.8122 51.4859 8.59424 52.2286 6.36878 53.7547C2.7302 56.2497 -1.03953 58.0073 0.263211 63.2183C0.794509 65.3435 3.5869 69.0549 5.72231 69.665C7.50476 70.1743 10.2247 71.8649 11.6842 73.059C12.5425 73.7613 13.6766 73.6832 14.5933 74.2622C15.9463 75.1167 17.8123 75.37 19.2982 76.0579C22.2866 77.4414 24.8748 78.6647 27.3791 80.9604C29.2367 82.6631 31.6525 83.838 33.772 85.1804C39.8472 89.028 46.4574 91.8123 52.9327 94.8595C56.5026 96.5394 60.5398 97.3414 64.2999 98.4331C67.8929 99.4762 71.2766 100.814 74.7512 102.132C77.295 103.097 79.9524 104.013 82.2934 105.437C83.777 106.339 85.207 107.635 86.675 108.435C90.2901 110.407 94.2364 111.706 98.1678 112.907C101.603 113.957 104.914 115.339 108.475 116.229C111.774 117.054 114.701 119.314 117.921 120.162C122.008 121.237 127.471 120.981 131.569 120.162C132.561 119.963 133.413 119.373 134.406 119.102C136.251 118.599 138.281 118.216 140.045 117.486C144.083 115.815 147.852 113.718 151.574 111.434C154.477 109.653 157.75 108.509 160.57 106.676C163.69 104.648 166.914 103.47 170.381 102.204L170.627 102.114C172.644 101.377 174.685 100.738 176.714 100.049C179.917 98.9625 182.658 96.9347 185.837 95.7753C196.205 91.9941 205.214 84.8976 215.898 81.9301C221.216 80.4528 226.528 79.2607 231.341 76.453Z" stroke="#121212" stroke-width="2" stroke-linecap="round"/>
<path d="M210.331 85.1805C212.135 85.1805 211.947 89.8708 211.947 91.1603C211.947 92.3521 211.682 93.3919 211.624 94.5543C211.598 95.06 211.23 95.5376 211.049 95.9909C210.742 96.7574 211.032 97.7712 210.816 98.5948C210.397 100.184 210.701 101.973 210.654 103.605C210.6 105.488 210.008 107.409 210.008 109.297C210.008 112.167 209.684 115.083 209.684 117.989C209.684 128.345 210.331 138.624 210.331 149.02C210.331 153.878 204.572 156.966 200.777 159.381C198.093 161.09 196.056 163.394 193.199 164.822C189.98 166.432 186.266 168.398 183.664 171C180.299 174.365 175.253 174.808 171.417 177.464C168.795 179.279 164.795 179.74 161.827 181.038C158.732 182.392 155.922 183.317 152.543 183.947C149.621 184.492 146.291 185.384 143.295 185.384C140.3 185.384 137.356 186.03 134.37 186.03C131.893 186.03 129.182 185.672 126.738 186.048C120.631 186.988 114.726 187 108.511 187C105.557 187 102.65 187.033 99.8558 186.102C96.6392 185.03 93.4987 183.696 90.3383 182.475C86.7181 181.076 83.2637 179.763 79.923 177.949C77.3727 176.565 75.0243 174.764 72.4885 173.496C69.7202 172.112 66.9691 170.593 64.2281 169.15C61.9268 167.939 60.5023 165.43 58.338 163.906C56.1188 162.345 54.2244 160.367 52.3401 158.483C50.8294 156.973 50.1868 154.523 48.6409 153.132C47.1784 151.816 46.1268 150.9 46.1268 148.858C46.1268 143.209 46.7733 137.725 46.7733 132.05C46.7733 128.494 46.7733 124.939 46.7733 121.383C46.7733 118.375 46.1268 115.397 46.1268 112.332C46.1268 108.561 46.1268 104.79 46.1268 101.019C46.1268 99.9921 45.9221 94.3335 46.7733 93.9079" stroke="#121212" stroke-width="2" stroke-linecap="round"/>
<path d="M128.875 59.6448C130.384 59.6448 131.892 59.6448 133.4 59.6448C134.829 59.6448 135.977 60.2912 137.441 60.2912C142.061 60.2912 146.504 62.3793 151.053 63.0567C153.732 63.4558 156.508 63.7208 159.134 64.3137C162.228 65.0124 165.717 64.4239 168.885 64.7447C174.19 65.2819 179.603 65.7202 184.831 66.8278C191.564 68.2543 198.02 69.6957 204.638 71.5866C208.874 72.7967 213.25 73.683 217.55 74.6753C221.6 75.61 225.56 76.6824 229.527 77.8897C231.738 78.5625 234.661 78.3828 235.202 80.8167C235.977 84.3071 237.159 87.6791 237.159 91.3937C237.159 94.0107 237.806 96.4608 237.806 99.0616C237.806 101.169 237.806 103.276 237.806 105.383C237.806 108.483 237.482 111.549 237.482 114.595C237.482 117.269 236.513 120.118 236.513 122.676" stroke="#121212" stroke-width="2" stroke-linecap="round"/>
<path d="M236.513 122.999C234.161 122.999 232.634 125.958 232.634 128.171C232.634 130.597 233.907 133.666 236.674 133.666C237.999 133.666 239.037 133.907 239.997 132.948C240.993 131.951 240.715 129.682 240.715 128.332C240.715 126.852 240.169 125.63 238.776 125.01C237.532 124.458 237.036 124.102 235.866 123.322" stroke="#121212" stroke-width="2" stroke-linecap="round"/>
<path d="M233.28 132.373C233.28 134.037 233.28 135.701 233.28 137.365C233.28 139.178 232.317 140.966 231.736 142.645C231.278 143.967 231.079 145.663 230.228 146.757C229.006 148.327 236.143 146.676 236.782 146.452C238.093 145.993 239.96 145.949 241.361 145.949C242.936 145.949 241.718 141.579 241.361 140.598C240.46 138.119 238.776 136.314 238.776 133.666" stroke="#121212" stroke-width="2" stroke-linecap="round"/>
</g>
<defs>
<clipPath id="clip0_64_13">
<rect width="253" height="188" fill="white"/>
</clipPath>
</defs>
</svg>
