<svg width="10" height="14" viewBox="0 0 10 14" fill="none" xmlns="http://www.w3.org/2000/svg">
<g clip-path="url(#clip0_69_35)">
<path d="M7.04165 6.77811C6.55464 6.91338 6.09738 7.10273 5.97429 6.49163C5.9009 6.12719 6.02988 5.82014 6.35325 5.62766C7.65909 4.85042 8.69865 6.44201 8.07991 7.60368C7.63839 8.43263 6.69318 8.86339 5.78823 8.86022C4.55599 8.85588 4.23887 7.46953 4.42485 6.4337C4.62759 5.30454 5.53299 4.21791 6.78287 4.37545C8.35926 4.57413 9.32609 6.40805 8.87463 7.85539C8.43177 9.27515 7.40267 10.5376 5.94363 10.9675C5.19922 11.1869 4.27939 11.2838 3.51517 11.1063C2.40439 10.8484 1.87308 9.73687 1.62448 8.72095C1.24272 7.16089 2.22895 5.59891 3.30093 4.54719C4.41715 3.45208 5.79653 2.89625 7.34154 3.41538C8.7806 3.89891 9.08138 5.33754 8.98301 6.69359C8.81712 8.98032 7.51561 10.8731 5.72394 12.2609C4.0923 13.5247 1.4682 13.3561 1.08808 11.0037C0.854598 9.55869 1.10464 7.96778 1.60994 6.6059C2.04379 5.43661 2.71629 4.32458 3.53516 3.3854C5.19998 1.47598 4.47155 2.72033 6.26873 1" stroke="#006868" stroke-width="0.8" stroke-linecap="round"/>
</g>
<defs>
<clipPath id="clip0_69_35">
<rect width="10" height="14" fill="white"/>
</clipPath>
</defs>
</svg>
