<?xml version="1.0" encoding="UTF-8"?>
<svg xmlns="http://www.w3.org/2000/svg" version="1.1" viewBox="0 0 100 100">
  <defs>
    <style>
      .cls-1 {
        fill: none;
        stroke: #006868;
        stroke-linejoin: round;
        stroke-width: 3px;
      }
    </style>
  </defs>
  <!-- Generator: Adobe Illustrator 28.7.1, SVG Export Plug-In . SVG Version: 1.2.0 Build 142)  -->
  <g>
    <g id="Laag_1">
      <g id="Laag_1-2">
        <g id="Laag_1-2-2">
          <g id="Laag_1-2-2-2">
            <path class="cls-1" d="M2.5,36.3c.5.2,1.1.6,1.9,1.1,6.4,3.7,15.4,6.5,15.4,10.1,0,8.8-.4,17.6-.5,26.4,5.9-2.6,11.9-5.3,17.7-7.8,3,3.4,5.9,7,7.6,9,1.1-1.9,52.8-49.9,52.8-49.9-14.2,0-30.3.7-47.5,2.8-17.6,2-33.5,5.1-47.5,8.4ZM19.4,73.8c1.8-2.8,3.6-5.5,5.3-8.4,1.8-2.8,3.7-5.7,5.5-8.3,7.8-4.7,19.4-11.1,33.7-17.8,19.7-9.1,33.8-13.6,33.6-14.2-.2-.6-14.5,3.1-77.7,22.4M37.1,66c-2.3-3-4.6-5.9-6.9-8.9"/>
          </g>
        </g>
      </g>
    </g>
  </g>
</svg>