<svg width="150" height="110" viewBox="0 0 150 110" fill="none" xmlns="http://www.w3.org/2000/svg">
<g clip-path="url(#clip0_71_45)">
<rect width="150" height="110" fill="#F3EBE0"/>
<mask id="mask0_71_45" style="mask-type:alpha" maskUnits="userSpaceOnUse" x="-5" y="-4" width="159" height="119">
<ellipse cx="-0.962511" cy="0.0689147" rx="3.03847" ry="3.05195" fill="#006868"/>
<ellipse cx="-0.962511" cy="109.931" rx="3.03847" ry="3.05195" fill="#006868"/>
<path d="M-0.962512 78.7941C-0.563495 78.7941 -0.168385 78.873 0.200259 79.0264C0.568902 79.1797 0.90386 79.4046 1.18601 79.6879C1.46816 79.9713 1.69197 80.3078 1.84466 80.6781C1.99736 81.0484 2.07595 81.4452 2.07595 81.846C2.07595 82.2468 1.99736 82.6437 1.84466 83.0139C1.69197 83.3842 1.46816 83.7207 1.18601 84.0041C0.90386 84.2875 0.568902 84.5123 0.200259 84.6656C-0.168385 84.819 -0.563495 84.8979 -0.962512 84.8979L-0.962511 81.846L-0.962512 78.7941Z" fill="#006868"/>
<ellipse cx="-0.962511" cy="100.776" rx="3.03847" ry="3.05195" fill="#006868"/>
<ellipse cx="-0.962511" cy="91.621" rx="3.03847" ry="3.05195" fill="#006868"/>
<ellipse cx="-0.962511" cy="73.3105" rx="3.03847" ry="3.05195" fill="#006868"/>
<ellipse cx="-0.962511" cy="64.1555" rx="3.03847" ry="3.05195" fill="#006868"/>
<ellipse cx="-0.962511" cy="45.8449" rx="3.03847" ry="3.05195" fill="#006868"/>
<ellipse cx="-0.962511" cy="55.0002" rx="3.03847" ry="3.05195" fill="#006868"/>
<ellipse cx="-0.962511" cy="36.69" rx="3.03847" ry="3.05195" fill="#006868"/>
<ellipse cx="-0.962511" cy="27.5346" rx="3.03847" ry="3.05195" fill="#006868"/>
<ellipse cx="-0.962511" cy="18.3797" rx="3.03847" ry="3.05195" fill="#006868"/>
<ellipse cx="-0.962511" cy="9.22431" rx="3.03847" ry="3.05195" fill="#006868"/>
<ellipse cx="126.654" cy="110.949" rx="3.05195" ry="3.03847" transform="rotate(90 126.654 110.949)" fill="#006868"/>
<ellipse cx="134.756" cy="110.949" rx="3.05195" ry="3.03847" transform="rotate(90 134.756 110.949)" fill="#006868"/>
<ellipse cx="142.859" cy="110.949" rx="3.05195" ry="3.03847" transform="rotate(90 142.859 110.949)" fill="#006868"/>
<ellipse cx="17.2682" cy="110.949" rx="3.05195" ry="3.03847" transform="rotate(90 17.2682 110.949)" fill="#006868"/>
<ellipse cx="8.15294" cy="110.949" rx="3.05195" ry="3.03847" transform="rotate(90 8.15294 110.949)" fill="#006868"/>
<ellipse cx="44.6144" cy="110.949" rx="3.05195" ry="3.03847" transform="rotate(90 44.6144 110.949)" fill="#006868"/>
<ellipse cx="26.3834" cy="110.949" rx="3.05195" ry="3.03847" transform="rotate(90 26.3834 110.949)" fill="#006868"/>
<ellipse cx="35.4986" cy="110.949" rx="3.05195" ry="3.03847" transform="rotate(90 35.4986 110.949)" fill="#006868"/>
<ellipse cx="53.7296" cy="110.949" rx="3.05195" ry="3.03847" transform="rotate(90 53.7296 110.949)" fill="#006868"/>
<ellipse cx="62.8453" cy="110.949" rx="3.05195" ry="3.03847" transform="rotate(90 62.8453 110.949)" fill="#006868"/>
<ellipse cx="81.0763" cy="110.949" rx="3.05195" ry="3.03847" transform="rotate(90 81.0763 110.949)" fill="#006868"/>
<ellipse cx="71.9615" cy="110.949" rx="3.05195" ry="3.03847" transform="rotate(90 71.9615 110.949)" fill="#006868"/>
<ellipse cx="90.192" cy="110.949" rx="3.05195" ry="3.03847" transform="rotate(90 90.192 110.949)" fill="#006868"/>
<ellipse cx="99.3072" cy="110.949" rx="3.05195" ry="3.03847" transform="rotate(90 99.3072 110.949)" fill="#006868"/>
<ellipse cx="108.422" cy="110.949" rx="3.05195" ry="3.03847" transform="rotate(90 108.422 110.949)" fill="#006868"/>
<ellipse cx="117.538" cy="110.949" rx="3.05195" ry="3.03847" transform="rotate(90 117.538 110.949)" fill="#006868"/>
<ellipse cx="126.654" cy="-0.948053" rx="3.05195" ry="3.03847" transform="rotate(90 126.654 -0.948053)" fill="#006868"/>
<ellipse cx="134.756" cy="-0.948053" rx="3.05195" ry="3.03847" transform="rotate(90 134.756 -0.948053)" fill="#006868"/>
<ellipse cx="142.859" cy="-0.948053" rx="3.05195" ry="3.03847" transform="rotate(90 142.859 -0.948053)" fill="#006868"/>
<ellipse cx="17.2682" cy="-0.948053" rx="3.05195" ry="3.03847" transform="rotate(90 17.2682 -0.948053)" fill="#006868"/>
<ellipse cx="8.15294" cy="-0.948053" rx="3.05195" ry="3.03847" transform="rotate(90 8.15294 -0.948053)" fill="#006868"/>
<ellipse cx="44.6144" cy="-0.948053" rx="3.05195" ry="3.03847" transform="rotate(90 44.6144 -0.948053)" fill="#006868"/>
<ellipse cx="26.3834" cy="-0.948053" rx="3.05195" ry="3.03847" transform="rotate(90 26.3834 -0.948053)" fill="#006868"/>
<ellipse cx="35.4986" cy="-0.948053" rx="3.05195" ry="3.03847" transform="rotate(90 35.4986 -0.948053)" fill="#006868"/>
<ellipse cx="53.7296" cy="-0.948053" rx="3.05195" ry="3.03847" transform="rotate(90 53.7296 -0.948053)" fill="#006868"/>
<ellipse cx="62.8453" cy="-0.948053" rx="3.05195" ry="3.03847" transform="rotate(90 62.8453 -0.948053)" fill="#006868"/>
<ellipse cx="81.0763" cy="-0.948053" rx="3.05195" ry="3.03847" transform="rotate(90 81.0763 -0.948053)" fill="#006868"/>
<ellipse cx="71.9615" cy="-0.948053" rx="3.05195" ry="3.03847" transform="rotate(90 71.9615 -0.948053)" fill="#006868"/>
<ellipse cx="90.192" cy="-0.948053" rx="3.05195" ry="3.03847" transform="rotate(90 90.192 -0.948053)" fill="#006868"/>
<ellipse cx="99.3072" cy="-0.948053" rx="3.05195" ry="3.03847" transform="rotate(90 99.3072 -0.948053)" fill="#006868"/>
<ellipse cx="108.422" cy="-0.948053" rx="3.05195" ry="3.03847" transform="rotate(90 108.422 -0.948053)" fill="#006868"/>
<ellipse cx="117.538" cy="-0.948053" rx="3.05195" ry="3.03847" transform="rotate(90 117.538 -0.948053)" fill="#006868"/>
<ellipse cx="150.961" cy="0.0689147" rx="3.03847" ry="3.05195" fill="#006868"/>
<ellipse cx="150.961" cy="109.931" rx="3.03847" ry="3.05195" fill="#006868"/>
<ellipse cx="150.961" cy="82.4659" rx="3.03847" ry="3.05195" fill="#006868"/>
<ellipse cx="150.961" cy="100.776" rx="3.03847" ry="3.05195" fill="#006868"/>
<ellipse cx="150.961" cy="91.621" rx="3.03847" ry="3.05195" fill="#006868"/>
<ellipse cx="150.961" cy="73.3105" rx="3.03847" ry="3.05195" fill="#006868"/>
<ellipse cx="150.961" cy="64.1555" rx="3.03847" ry="3.05195" fill="#006868"/>
<ellipse cx="150.961" cy="45.8449" rx="3.03847" ry="3.05195" fill="#006868"/>
<ellipse cx="150.961" cy="55.0002" rx="3.03847" ry="3.05195" fill="#006868"/>
<ellipse cx="150.961" cy="36.69" rx="3.03847" ry="3.05195" fill="#006868"/>
<ellipse cx="150.961" cy="27.5346" rx="3.03847" ry="3.05195" fill="#006868"/>
<ellipse cx="150.961" cy="18.3797" rx="3.03847" ry="3.05195" fill="#006868"/>
<ellipse cx="150.961" cy="9.22431" rx="3.03847" ry="3.05195" fill="#006868"/>
</mask>
<g mask="url(#mask0_71_45)">
<rect x="-0.565918" y="-0.550171" width="151.131" height="112.118" fill="#006868"/>
</g>
<rect x="8" y="8" width="134" height="94" fill="#BFDFE7"/>
<path d="M33 42C34.5092 46.9153 36.6222 65.3966 33 100" stroke="#007912" stroke-width="3" stroke-linecap="square"/>
<path d="M113 42C111.491 46.9153 109.378 65.3966 113 100" stroke="#007912" stroke-width="3" stroke-linecap="square"/>
<path d="M69 61.5C70.5092 64.6356 70.6222 77.9254 67 100" stroke="#007912" stroke-width="3" stroke-linecap="square"/>
<path d="M28.2775 23.5344C29.7639 18.9596 36.2361 18.9596 37.7225 23.5344V23.5344C38.3873 25.5804 40.2938 26.9656 42.4451 26.9656V26.9656C47.2553 26.9656 49.2553 33.1209 45.3637 35.9483V35.9483C43.6234 37.2128 42.8951 39.4541 43.5599 41.5V41.5C45.0463 46.0748 39.8103 49.8791 35.9187 47.0517V47.0517C34.1783 45.7872 31.8217 45.7872 30.0813 47.0517V47.0517C26.1897 49.8791 20.9537 46.0748 22.4401 41.5V41.5C23.1049 39.4541 22.3766 37.2128 20.6363 35.9483V35.9483C16.7447 33.1209 18.7447 26.9656 23.5549 26.9656V26.9656C25.7062 26.9656 27.6127 25.5804 28.2775 23.5344V23.5344Z" fill="#EE79AB"/>
<path d="M30.7679 33C31.5377 31.6667 33.4623 31.6667 34.2321 33L35.5311 35.25C36.3009 36.5833 35.3386 38.25 33.799 38.25H31.201C29.6614 38.25 28.6991 36.5833 29.4689 35.25L30.7679 33Z" fill="#FFBE58"/>
<path d="M59.6468 43.8358C59.482 39.0283 65.5653 36.8187 68.5243 40.6111V40.6111C69.8476 42.3071 72.1126 42.9582 74.1345 42.2237V42.2237C78.6557 40.5814 82.6371 45.6841 79.9447 49.6703V49.6703C78.7406 51.4529 78.8213 53.8082 80.1446 55.5042V55.5042C83.1037 59.2966 79.481 64.66 74.858 63.3311V63.3311C72.7905 62.7368 70.5754 63.5414 69.3714 65.3241V65.3241C66.6789 69.3102 60.4586 67.5222 60.2939 62.7148V62.7148C60.2202 60.5648 58.7705 58.7069 56.703 58.1126V58.1126C52.0799 56.7837 51.8582 50.3153 56.3795 48.6731V48.6731C58.4014 47.9386 59.7205 45.9857 59.6468 43.8358V43.8358Z" fill="#E96736"/>
<path d="M65.768 51C66.5378 49.6667 68.4623 49.6667 69.2321 51L69.6651 51.75C70.4349 53.0833 69.4726 54.75 67.933 54.75H67.067C65.5274 54.75 64.5651 53.0833 65.3349 51.75L65.768 51Z" fill="#FFBE58"/>
<path d="M46.173 59.1867C47.9362 60.9381 46.9932 64.9987 43.5 68.5154C40.0068 72.032 35.2863 73.6731 33.5231 71.9216C31.7598 70.1701 34.0067 67.032 37.4999 63.5154C40.9931 59.9987 44.4098 57.4352 46.173 59.1867Z" fill="#007912"/>
<path d="M37 69.0154C40.5189 66.7634 41.9556 65.1665 44 62.0154" stroke="white" stroke-opacity="0.3" stroke-linecap="round"/>
<path d="M77.9908 67.2265C79.0583 68.2088 78.4873 70.4864 76.3726 72.4588C74.2579 74.4312 71.4001 75.3516 70.3327 74.3692C69.2652 73.3869 70.6254 71.6268 72.7402 69.6544C74.8549 67.6819 76.9234 66.2441 77.9908 67.2265Z" fill="#007912"/>
<path d="M72.4375 72.7391C74.5678 71.476 75.4376 70.5804 76.6752 68.813" stroke="white" stroke-opacity="0.3" stroke-linecap="round"/>
<path d="M24.6811 62.0793C23.2567 63.4943 24.0185 66.7746 26.8405 69.6156C29.6625 72.4565 33.4759 73.7822 34.9004 72.3673C36.3248 70.9524 34.5097 68.4172 31.6877 65.5763C28.8657 62.7353 26.1055 60.6644 24.6811 62.0793Z" fill="#007912"/>
<path d="M32.0913 70.0195C29.2486 68.2002 28.0879 66.9102 26.4363 64.3646" stroke="white" stroke-opacity="0.3" stroke-linecap="round"/>
<path d="M100.897 64.9088C99.358 66.4378 100.181 69.9827 103.231 73.0527C106.28 76.1227 110.401 77.5553 111.941 76.0263C113.48 74.4973 111.518 71.7578 108.469 68.6877C105.419 65.6177 102.437 63.3798 100.897 64.9088Z" fill="#007912"/>
<path d="M108.905 73.4893C105.833 71.5233 104.579 70.1293 102.794 67.3783" stroke="white" stroke-opacity="0.3" stroke-linecap="round"/>
<path d="M119.659 67.4341C120.903 68.6693 120.238 71.533 117.774 74.0132C115.311 76.4933 111.982 77.6506 110.738 76.4154C109.494 75.1802 111.079 72.967 113.543 70.4869C116.006 68.0068 118.416 66.1989 119.659 67.4341Z" fill="#007912"/>
<path d="M113.19 74.3658C115.672 72.7776 116.685 71.6515 118.127 69.4291" stroke="white" stroke-opacity="0.3" stroke-linecap="round"/>
<path d="M9.5 100.5V83.4043C52.9615 80.5659 101.07 80.3897 140.5 84.3548V100.5H9.5Z" fill="#007912" stroke="#007912" stroke-width="3" stroke-linecap="square"/>
<path d="M112.108 34.6322C114.953 30.7534 121.099 32.7812 121.077 37.5915V37.5915C121.068 39.7426 122.444 41.6554 124.487 42.3295V42.3295C129.055 43.8366 129.026 50.3087 124.444 51.7744V51.7744C122.395 52.4299 121.002 54.3302 120.992 56.4814V56.4814C120.97 61.2916 114.806 63.2637 111.996 59.3594V59.3594C110.739 57.6133 108.501 56.8749 106.452 57.5304V57.5304C101.871 58.9962 98.0905 53.7429 100.935 49.8642V49.8642C102.208 48.1296 102.218 45.773 100.962 44.0269V44.0269C98.1521 40.1226 101.98 34.9037 106.548 36.4109V36.4109C108.591 37.0849 110.836 36.3668 112.108 34.6322V34.6322Z" fill="#2A8AD9"/>
<path d="M112.457 44.7147C113.605 43.6897 115.433 44.2927 115.746 45.8001L115.923 46.648C116.236 48.1554 114.8 49.4366 113.338 48.9543L112.515 48.6829C111.053 48.2005 110.662 46.3163 111.81 45.2913L112.457 44.7147Z" fill="#FFBE58"/>
</g>
<defs>
<clipPath id="clip0_71_45">
<rect width="150" height="110" fill="white"/>
</clipPath>
</defs>
</svg>
