<?xml version="1.0" encoding="UTF-8"?>
<svg xmlns="http://www.w3.org/2000/svg" version="1.1" xmlns:xlink="http://www.w3.org/1999/xlink" viewBox="0 0 45 95">
  <defs>
    <style>
      .cls-1, .cls-2 {
        fill: none;
      }

      .cls-2 {
        stroke: #ffbe58;
        stroke-linecap: round;
        stroke-width: 3px;
      }

      .cls-3 {
        clip-path: url(#clippath);
      }
    </style>
    <clipPath id="clippath">
      <rect class="cls-1" width="45" height="95"/>
    </clipPath>
  </defs>
  <!-- Generator: Adobe Illustrator 28.7.1, SVG Export Plug-In . SVG Version: 1.2.0 Build 142)  -->
  <g>
    <g id="Laag_1">
      <g class="cls-3">
        <path class="cls-2" d="M22.6,2.7c0,8.1,0,15.9-1.8,23.8-1,4.1-1.8,8.1-3.7,11.8-2.8,5.3-7.4,11.8-13.5,13.7-.9.3-2.9.5-.9,0,2.2-.6,4.7-1,6.9-1.1,3.3-.1,6.2,2.1,8.3,4.4,3.8,4.1,5.6,9.4,6.9,14.8,1.3,5.3,1.7,10.7,2.5,16.2.3,2,.6,3.9.8,5.9,0,.2.2,2.4,0,1.9-1.5-2.6-1.6-6.5-1.9-9.3-.5-4.5-.2-9,.2-13.6.3-3.1.6-6.6,1.9-9.5,1.5-3.5,4.7-5.8,7.8-8.2,0,0,8.7-3.5,7.2-5.1-3.3-3.7-13.8-6.6-15.8-11.2-2.3-5.3-2.8-11.6-3-17.3-.2-6-.6-12-.2-18.1"/>
      </g>
    </g>
  </g>
</svg>